<svg width="20" height="20" viewBox="0 0 20 20" fill="none" xmlns="http://www.w3.org/2000/svg">
<path d="M17.5 7.20819V11.9581C17.5 12.2415 17.4916 12.5165 17.475 12.7749C16.875 12.0915 15.9833 11.6665 15 11.6665C13.1583 11.6665 11.6666 13.1582 11.6666 14.9998C11.6666 15.6248 11.8416 16.2165 12.15 16.7165C12.3166 16.9998 12.5333 17.2581 12.7833 17.4748C12.525 17.4915 12.25 17.4998 11.9583 17.4998H7.20829C3.24995 17.4998 1.66663 15.9165 1.66663 11.9581V7.20819C1.66663 3.24986 3.24995 1.6665 7.20829 1.6665H11.9583C15.9166 1.6665 17.5 3.24986 17.5 7.20819Z" fill="#56DADA" stroke="#56DADA" stroke-width="1.5" stroke-linecap="round" stroke-linejoin="round"/>
<path d="M5.60005 12.0167C6.2674 12.0167 6.80839 11.4757 6.80839 10.8084C6.80839 10.141 6.2674 9.6001 5.60005 9.6001C4.93271 9.6001 4.39172 10.141 4.39172 10.8084C4.39172 11.4757 4.93271 12.0167 5.60005 12.0167Z" fill="#0D0D0D" stroke="#56DADA" stroke-linecap="round" stroke-linejoin="round"/>
<path d="M11.2334 10.0002V5.28358C11.2334 4.27525 10.6001 4.14189 9.96678 4.31689L7.55845 4.9752C7.12512 5.09187 6.81677 5.4419 6.81677 5.9419V6.78357V7.35023V10.8085" fill="#0D0D0D"/>
<path d="M11.2334 10.0002V5.28358C11.2334 4.27525 10.6001 4.14189 9.96678 4.31689L7.55845 4.9752C7.12512 5.09187 6.81677 5.4419 6.81677 5.9419V6.78357V7.35024V10.8085" stroke="#56DADA" stroke-linecap="round" stroke-linejoin="round"/>
<path d="M10.0251 11.2087C10.6924 11.2087 11.2334 10.6677 11.2334 10.0003C11.2334 9.33299 10.6924 8.79199 10.0251 8.79199C9.35776 8.79199 8.81677 9.33299 8.81677 10.0003C8.81677 10.6677 9.35776 11.2087 10.0251 11.2087Z" fill="#0D0D0D" stroke="#56DADA" stroke-linecap="round" stroke-linejoin="round"/>
<path d="M6.80835 7.35873L11.2333 6.15039" stroke="#56DADA" stroke-linecap="round" stroke-linejoin="round"/>
<path d="M18.3333 14.9998C18.3333 15.6248 18.1583 16.2165 17.85 16.7165C17.275 17.6832 16.2166 18.3332 15 18.3332C13.7833 18.3332 12.725 17.6832 12.15 16.7165C11.8416 16.2165 11.6666 15.6248 11.6666 14.9998C11.6666 13.1582 13.1583 11.6665 15 11.6665C16.8416 11.6665 18.3333 13.1582 18.3333 14.9998Z" fill="#0D0D0D" stroke="#56DADA" stroke-width="1.5" stroke-miterlimit="10" stroke-linecap="round" stroke-linejoin="round"/>
<path d="M16.2416 14.9834H13.7583" stroke="#56DADA" stroke-miterlimit="10" stroke-linecap="round" stroke-linejoin="round"/>
<path d="M15 13.7666V16.2583" stroke="#56DADA" stroke-miterlimit="10" stroke-linecap="round" stroke-linejoin="round"/>
</svg>
